<svg width="1200" height="630" viewBox="0 0 1200 630" fill="none" xmlns="http://www.w3.org/2000/svg">
<g clip-path="url(#clip0_616_4)">
<path d="M1200 0H0V630H1200V0Z" fill="url(#paint0_linear_616_4)"/>
<path d="M859 373C903.183 373 939 337.183 939 293C939 248.817 903.183 213 859 213C814.817 213 779 248.817 779 293C779 337.183 814.817 373 859 373Z" fill="#FFD5EA"/>
<path d="M1121 569C1187.27 569 1241 515.274 1241 449C1241 382.726 1187.27 329 1121 329C1054.73 329 1001 382.726 1001 449C1001 515.274 1054.73 569 1121 569Z" fill="#FFD5EA" fill-opacity="0.75"/>
<path opacity="0.6" d="M0 486.307C200 415.961 400 556.654 600 486.307C800 415.961 1000 556.654 1200 486.307V627H0V486.307Z" fill="#FFF5EC"/>
<path d="M996.53 151.106C975.986 114.989 1017.07 78.8719 1047.89 100.542C1078.7 122.213 1078.7 151.106 1047.89 172.777C1027.34 187.223 1006.8 180 996.53 151.106Z" fill="url(#paint1_radial_616_4)"/>
<g opacity="0.9">
<path d="M296 357L346 427L316 497H256L226 427L296 357Z" fill="url(#paint2_radial_616_4)"/>
</g>
<path d="M153.856 166.176C153.856 170.64 153.52 174.696 152.848 178.344C152.224 181.944 151.12 185.232 149.536 188.208C147.952 191.136 145.744 193.776 142.912 196.128C140.08 198.48 136.504 200.616 132.184 202.536L124.48 195.264C127.936 194.064 130.912 192.72 133.408 191.232C135.952 189.744 138.04 187.92 139.672 185.76C141.304 183.552 142.504 180.912 143.272 177.84C144.088 174.72 144.496 170.952 144.496 166.536V147.384C144.496 145.896 144.448 144.6 144.352 143.496C144.256 142.344 144.16 141.408 144.064 140.688H154.36C154.264 141.408 154.144 142.344 154 143.496C153.904 144.6 153.856 145.896 153.856 147.384V166.176ZM127.864 141.336C127.768 142.008 127.672 142.92 127.576 144.072C127.48 145.176 127.432 146.424 127.432 147.816V173.592C127.432 174.648 127.456 175.68 127.504 176.688C127.552 177.648 127.576 178.512 127.576 179.28C127.624 180 127.672 180.624 127.72 181.152H117.64C117.736 180.624 117.808 180 117.856 179.28C117.904 178.512 117.952 177.648 118 176.688C118.048 175.68 118.072 174.648 118.072 173.592V147.816C118.072 146.76 118.024 145.68 117.928 144.576C117.88 143.472 117.784 142.392 117.64 141.336H127.864ZM104.104 154.296C104.584 154.344 105.208 154.44 105.976 154.584C106.744 154.68 107.632 154.776 108.64 154.872C109.648 154.92 110.752 154.944 111.952 154.944H159.184C161.104 154.944 162.664 154.896 163.864 154.8C165.064 154.704 166.144 154.584 167.104 154.44V164.016C166.336 163.92 165.304 163.872 164.008 163.872C162.712 163.824 161.104 163.8 159.184 163.8H111.952C110.752 163.8 109.648 163.824 108.64 163.872C107.68 163.872 106.816 163.896 106.048 163.944C105.328 163.992 104.68 164.04 104.104 164.088V154.296ZM189.352 143.28C190.6 144.144 192.064 145.2 193.744 146.448C195.424 147.696 197.152 149.064 198.928 150.552C200.752 151.992 202.456 153.408 204.04 154.8C205.624 156.192 206.92 157.44 207.928 158.544L200.584 166.032C199.672 165.024 198.472 163.824 196.984 162.432C195.496 161.04 193.888 159.6 192.16 158.112C190.432 156.624 188.728 155.208 187.048 153.864C185.368 152.52 183.88 151.392 182.584 150.48L189.352 143.28ZM180.352 191.232C184.096 190.704 187.624 189.96 190.936 189C194.248 188.04 197.32 186.936 200.152 185.688C202.984 184.44 205.576 183.144 207.928 181.8C212.008 179.352 215.752 176.568 219.16 173.448C222.568 170.328 225.544 167.088 228.088 163.728C230.632 160.32 232.648 157.008 234.136 153.792L239.752 163.944C237.928 167.16 235.672 170.376 232.984 173.592C230.344 176.808 227.344 179.88 223.984 182.808C220.624 185.688 217 188.28 213.112 190.584C210.664 192.072 208.024 193.488 205.192 194.832C202.36 196.128 199.36 197.28 196.192 198.288C193.072 199.344 189.808 200.16 186.4 200.736L180.352 191.232ZM301.816 142.128C301.768 143.136 301.696 144.24 301.6 145.44C301.552 146.592 301.528 147.888 301.528 149.328C301.528 150.576 301.528 152.088 301.528 153.864C301.528 155.64 301.528 157.416 301.528 159.192C301.528 160.92 301.528 162.384 301.528 163.584C301.528 167.424 301.336 170.784 300.952 173.664C300.616 176.544 300.088 179.064 299.368 181.224C298.648 183.384 297.76 185.304 296.704 186.984C295.696 188.616 294.52 190.176 293.176 191.664C291.592 193.392 289.768 194.952 287.704 196.344C285.64 197.688 283.552 198.816 281.44 199.728C279.376 200.688 277.456 201.456 275.68 202.032L268.12 194.112C271.72 193.296 274.96 192.168 277.84 190.728C280.768 189.24 283.312 187.344 285.472 185.04C286.72 183.648 287.728 182.256 288.496 180.864C289.264 179.472 289.84 177.936 290.224 176.256C290.656 174.528 290.944 172.584 291.088 170.424C291.28 168.264 291.376 165.792 291.376 163.008C291.376 161.76 291.376 160.272 291.376 158.544C291.376 156.816 291.376 155.112 291.376 153.432C291.376 151.752 291.376 150.384 291.376 149.328C291.376 147.888 291.328 146.592 291.232 145.44C291.184 144.24 291.088 143.136 290.944 142.128H301.816ZM268.408 142.704C268.36 143.568 268.312 144.432 268.264 145.296C268.216 146.112 268.192 147.096 268.192 148.248C268.192 148.776 268.192 149.64 268.192 150.84C268.192 152.04 268.192 153.456 268.192 155.088C268.192 156.672 268.192 158.352 268.192 160.128C268.192 161.856 268.192 163.536 268.192 165.168C268.192 166.8 268.192 168.288 268.192 169.632C268.192 170.928 268.192 171.912 268.192 172.584C268.192 173.496 268.216 174.552 268.264 175.752C268.312 176.952 268.36 177.984 268.408 178.848H257.968C258.016 178.176 258.088 177.216 258.184 175.968C258.28 174.72 258.328 173.568 258.328 172.512C258.328 171.84 258.328 170.856 258.328 169.56C258.328 168.264 258.328 166.8 258.328 165.168C258.328 163.488 258.328 161.784 258.328 160.056C258.328 158.28 258.328 156.6 258.328 155.016C258.328 153.432 258.328 152.04 258.328 150.84C258.328 149.64 258.328 148.776 258.328 148.248C258.328 147.576 258.304 146.712 258.256 145.656C258.208 144.552 258.136 143.568 258.04 142.704H268.408ZM365.248 140.328C365.104 141.432 364.984 142.632 364.888 143.928C364.84 145.224 364.816 146.448 364.816 147.6C364.864 149.616 364.912 151.8 364.96 154.152C365.008 156.504 365.056 159 365.104 161.64C365.2 164.28 365.272 166.992 365.32 169.776C365.368 172.512 365.416 175.272 365.464 178.056C365.512 180.792 365.56 183.504 365.608 186.192C365.656 188.832 365.704 191.376 365.752 193.824C365.8 196.128 365.152 197.904 363.808 199.152C362.464 200.448 360.424 201.096 357.688 201.096C355.528 201.096 353.416 201.048 351.352 200.952C349.288 200.904 347.224 200.808 345.16 200.664L344.368 191.304C346 191.592 347.704 191.808 349.48 191.952C351.256 192.096 352.744 192.168 353.944 192.168C354.856 192.168 355.504 191.928 355.888 191.448C356.272 190.968 356.464 190.2 356.464 189.144C356.464 187.512 356.464 185.64 356.464 183.528C356.464 181.368 356.44 179.088 356.392 176.688C356.392 174.24 356.368 171.744 356.32 169.2C356.272 166.608 356.224 164.04 356.176 161.496C356.128 158.952 356.056 156.504 355.96 154.152C355.912 151.8 355.84 149.616 355.744 147.6C355.648 146.016 355.528 144.648 355.384 143.496C355.288 142.296 355.168 141.24 355.024 140.328H365.248ZM324.136 152.28C325.192 152.424 326.464 152.544 327.952 152.64C329.488 152.736 330.88 152.784 332.128 152.784C332.848 152.784 334.072 152.784 335.8 152.784C337.528 152.784 339.568 152.784 341.92 152.784C344.32 152.784 346.864 152.784 349.552 152.784C352.24 152.784 354.904 152.784 357.544 152.784C360.184 152.784 362.656 152.784 364.96 152.784C367.264 152.784 369.208 152.784 370.792 152.784C372.376 152.784 373.408 152.784 373.888 152.784C375.04 152.784 376.36 152.736 377.848 152.64C379.336 152.496 380.512 152.352 381.376 152.208V161.784C380.224 161.736 379 161.688 377.704 161.64C376.456 161.592 375.352 161.568 374.392 161.568C373.96 161.568 372.952 161.568 371.368 161.568C369.784 161.568 367.816 161.568 365.464 161.568C363.16 161.568 360.64 161.568 357.904 161.568C355.168 161.568 352.408 161.568 349.624 161.568C346.888 161.568 344.296 161.568 341.848 161.568C339.448 161.568 337.408 161.568 335.728 161.568C334.048 161.568 332.92 161.568 332.344 161.568C331.048 161.568 329.68 161.592 328.24 161.64C326.8 161.688 325.432 161.76 324.136 161.856V152.28ZM320.32 186.552C324.064 184.776 327.64 182.784 331.048 180.576C334.456 178.368 337.576 176.064 340.408 173.664C343.24 171.264 345.736 168.888 347.896 166.536C350.104 164.136 351.856 161.88 353.152 159.768L357.832 159.84L357.904 167.472C356.464 169.68 354.616 171.984 352.36 174.384C350.104 176.784 347.608 179.184 344.872 181.584C342.136 183.984 339.232 186.264 336.16 188.424C333.088 190.536 330.016 192.408 326.944 194.04L320.32 186.552ZM402.011 145.636L414.668 185.42H415.153L427.835 145.636H440.108L422.057 198H407.79L389.713 145.636H402.011ZM467.325 158.727V166.909H443.087V158.727H467.325ZM448.635 198V155.889C448.635 153.043 449.189 150.682 450.297 148.807C451.422 146.932 452.956 145.526 454.899 144.588C456.842 143.651 459.05 143.182 461.521 143.182C463.192 143.182 464.717 143.31 466.098 143.565C467.496 143.821 468.536 144.051 469.217 144.256L467.274 152.438C466.848 152.301 466.32 152.173 465.689 152.054C465.075 151.935 464.445 151.875 463.797 151.875C462.195 151.875 461.078 152.25 460.447 153C459.817 153.733 459.501 154.764 459.501 156.094V198H448.635ZM490.471 198.767C486.431 198.767 482.954 197.949 480.039 196.312C477.141 194.659 474.908 192.324 473.34 189.307C471.772 186.273 470.988 182.685 470.988 178.543C470.988 174.503 471.772 170.957 473.34 167.906C474.908 164.855 477.116 162.477 479.962 160.773C482.826 159.068 486.184 158.216 490.036 158.216C492.627 158.216 495.039 158.634 497.272 159.469C499.522 160.287 501.482 161.523 503.153 163.176C504.84 164.83 506.153 166.909 507.09 169.415C508.028 171.903 508.496 174.818 508.496 178.159V181.151H475.335V174.401H498.244C498.244 172.832 497.903 171.443 497.221 170.233C496.539 169.023 495.593 168.077 494.383 167.395C493.19 166.696 491.8 166.347 490.215 166.347C488.562 166.347 487.096 166.73 485.817 167.497C484.556 168.247 483.567 169.261 482.852 170.54C482.136 171.801 481.769 173.207 481.752 174.759V181.176C481.752 183.119 482.11 184.798 482.826 186.213C483.559 187.628 484.59 188.719 485.92 189.486C487.249 190.253 488.826 190.636 490.65 190.636C491.86 190.636 492.968 190.466 493.974 190.125C494.979 189.784 495.84 189.273 496.556 188.591C497.272 187.909 497.817 187.074 498.192 186.085L508.266 186.75C507.755 189.17 506.707 191.284 505.121 193.091C503.553 194.881 501.525 196.278 499.036 197.284C496.565 198.273 493.71 198.767 490.471 198.767ZM548.281 169.926L538.309 170.54C538.138 169.687 537.772 168.92 537.21 168.239C536.647 167.54 535.906 166.986 534.985 166.577C534.082 166.151 532.999 165.938 531.738 165.938C530.05 165.938 528.627 166.295 527.468 167.011C526.309 167.71 525.729 168.648 525.729 169.824C525.729 170.761 526.104 171.554 526.854 172.202C527.604 172.849 528.891 173.369 530.715 173.761L537.823 175.193C541.641 175.977 544.488 177.239 546.363 178.977C548.238 180.716 549.175 183 549.175 185.83C549.175 188.403 548.417 190.662 546.9 192.605C545.4 194.548 543.337 196.065 540.712 197.156C538.104 198.23 535.096 198.767 531.687 198.767C526.488 198.767 522.346 197.685 519.261 195.52C516.192 193.338 514.394 190.372 513.866 186.622L524.579 186.06C524.903 187.645 525.687 188.855 526.931 189.69C528.175 190.509 529.769 190.918 531.712 190.918C533.621 190.918 535.156 190.551 536.315 189.818C537.491 189.068 538.087 188.105 538.104 186.929C538.087 185.94 537.67 185.131 536.852 184.5C536.033 183.852 534.772 183.358 533.067 183.017L526.266 181.662C522.431 180.895 519.576 179.565 517.701 177.673C515.843 175.781 514.914 173.369 514.914 170.438C514.914 167.915 515.596 165.741 516.96 163.918C518.34 162.094 520.275 160.688 522.763 159.699C525.269 158.71 528.201 158.216 531.559 158.216C536.519 158.216 540.423 159.264 543.269 161.361C546.133 163.457 547.803 166.312 548.281 169.926ZM572.596 198V190.023L591.235 172.764C592.82 171.23 594.15 169.849 595.224 168.622C596.315 167.395 597.141 166.193 597.704 165.017C598.266 163.824 598.548 162.537 598.548 161.156C598.548 159.622 598.198 158.301 597.499 157.193C596.8 156.068 595.846 155.207 594.636 154.611C593.425 153.997 592.053 153.69 590.519 153.69C588.917 153.69 587.519 154.014 586.326 154.662C585.133 155.31 584.212 156.239 583.565 157.449C582.917 158.659 582.593 160.099 582.593 161.77H572.085C572.085 158.344 572.86 155.369 574.411 152.847C575.962 150.324 578.136 148.372 580.931 146.991C583.727 145.611 586.948 144.92 590.596 144.92C594.346 144.92 597.61 145.585 600.388 146.915C603.184 148.227 605.357 150.051 606.908 152.386C608.46 154.722 609.235 157.398 609.235 160.415C609.235 162.392 608.843 164.344 608.059 166.27C607.292 168.196 605.92 170.335 603.942 172.688C601.965 175.023 599.178 177.827 595.582 181.099L587.937 188.591V188.949H609.925V198H572.596ZM638.479 199.151C634.081 199.134 630.297 198.051 627.126 195.903C623.973 193.756 621.544 190.645 619.839 186.571C618.152 182.497 617.317 177.597 617.334 171.869C617.334 166.159 618.178 161.293 619.865 157.27C621.57 153.247 623.999 150.187 627.152 148.091C630.322 145.977 634.098 144.92 638.479 144.92C642.859 144.92 646.626 145.977 649.78 148.091C652.95 150.205 655.388 153.273 657.092 157.295C658.797 161.301 659.641 166.159 659.624 171.869C659.624 177.614 658.771 182.523 657.067 186.597C655.379 190.67 652.959 193.781 649.805 195.929C646.652 198.077 642.876 199.151 638.479 199.151ZM638.479 189.972C641.479 189.972 643.874 188.463 645.663 185.446C647.453 182.429 648.339 177.903 648.322 171.869C648.322 167.898 647.913 164.591 647.095 161.949C646.294 159.307 645.152 157.321 643.669 155.991C642.203 154.662 640.473 153.997 638.479 153.997C635.496 153.997 633.109 155.489 631.32 158.472C629.53 161.455 628.626 165.92 628.609 171.869C628.609 175.892 629.01 179.25 629.811 181.943C630.629 184.619 631.78 186.631 633.263 187.977C634.746 189.307 636.484 189.972 638.479 189.972ZM667.518 198V190.023L686.157 172.764C687.742 171.23 689.072 169.849 690.146 168.622C691.237 167.395 692.063 166.193 692.626 165.017C693.188 163.824 693.469 162.537 693.469 161.156C693.469 159.622 693.12 158.301 692.421 157.193C691.722 156.068 690.768 155.207 689.558 154.611C688.347 153.997 686.975 153.69 685.441 153.69C683.839 153.69 682.441 154.014 681.248 154.662C680.055 155.31 679.134 156.239 678.487 157.449C677.839 158.659 677.515 160.099 677.515 161.77H667.006C667.006 158.344 667.782 155.369 669.333 152.847C670.884 150.324 673.058 148.372 675.853 146.991C678.648 145.611 681.87 144.92 685.518 144.92C689.268 144.92 692.532 145.585 695.31 146.915C698.106 148.227 700.279 150.051 701.83 152.386C703.381 154.722 704.157 157.398 704.157 160.415C704.157 162.392 703.765 164.344 702.981 166.27C702.214 168.196 700.842 170.335 698.864 172.688C696.887 175.023 694.1 177.827 690.504 181.099L682.859 188.591V188.949H704.847V198H667.518ZM731.994 198.716C728.381 198.716 725.159 198.051 722.33 196.722C719.517 195.392 717.284 193.56 715.631 191.224C713.977 188.889 713.116 186.213 713.048 183.196H723.787C723.906 185.224 724.759 186.869 726.344 188.131C727.929 189.392 729.812 190.023 731.994 190.023C733.733 190.023 735.267 189.639 736.597 188.872C737.943 188.088 738.991 187.006 739.741 185.625C740.509 184.227 740.892 182.625 740.892 180.818C740.892 178.977 740.5 177.358 739.716 175.96C738.949 174.562 737.884 173.472 736.52 172.688C735.156 171.903 733.597 171.503 731.841 171.486C730.307 171.486 728.815 171.801 727.366 172.432C725.935 173.062 724.818 173.923 724.017 175.014L714.173 173.25L716.653 145.636H748.665V154.688H725.781L724.426 167.804H724.733C725.653 166.509 727.043 165.435 728.901 164.582C730.759 163.73 732.838 163.304 735.139 163.304C738.293 163.304 741.105 164.045 743.577 165.528C746.048 167.011 748 169.048 749.432 171.639C750.864 174.213 751.571 177.179 751.554 180.537C751.571 184.065 750.753 187.202 749.099 189.946C747.463 192.673 745.17 194.821 742.222 196.389C739.29 197.94 735.881 198.716 731.994 198.716Z" fill="#333333"/>
<path d="M104.403 272.179V236.085H114.673V240.034H109.347V268.244H114.673V272.179H104.403ZM140.502 237.36H153.702V241.84H140.502V237.36ZM140.462 255.88H154.422V260.36H140.462V255.88ZM140.182 246.6H152.782V250.96H140.182V246.6ZM118.502 237.36H130.622V241.84H118.502V237.36ZM118.942 246.6H130.382V250.96H118.942V246.6ZM138.022 232.2H142.822V269.6H138.022V232.2ZM116.782 256.2C118.356 256.04 120.169 255.84 122.222 255.6C124.302 255.333 126.489 255.053 128.782 254.76C131.102 254.44 133.409 254.12 135.702 253.8L135.862 258.04C133.729 258.387 131.582 258.747 129.422 259.12C127.289 259.467 125.222 259.8 123.222 260.12C121.222 260.413 119.382 260.693 117.702 260.96L116.782 256.2ZM128.302 232.2H133.062V250.96C133.062 252.32 132.902 253.853 132.582 255.56C132.262 257.267 131.676 259.013 130.822 260.8C129.996 262.56 128.822 264.253 127.302 265.88C125.782 267.507 123.796 268.907 121.342 270.08C120.942 269.493 120.409 268.867 119.742 268.2C119.076 267.533 118.449 266.96 117.862 266.48C119.622 265.733 121.116 264.867 122.342 263.88C123.569 262.867 124.569 261.787 125.342 260.64C126.116 259.493 126.716 258.347 127.142 257.2C127.569 256.027 127.862 254.907 128.022 253.84C128.209 252.747 128.302 251.787 128.302 250.96V232.2ZM171.782 246.64L177.502 248.04C176.862 249.587 176.156 251.173 175.382 252.8C174.636 254.427 173.862 256.027 173.062 257.6C172.262 259.173 171.462 260.68 170.662 262.12C169.889 263.533 169.129 264.813 168.382 265.96L163.902 264.56C164.622 263.333 165.356 261.987 166.102 260.52C166.849 259.027 167.569 257.493 168.262 255.92C168.982 254.32 169.636 252.733 170.222 251.16C170.836 249.56 171.356 248.053 171.782 246.64ZM159.302 263.08C161.169 263 163.276 262.92 165.622 262.84C167.969 262.733 170.449 262.627 173.062 262.52C175.676 262.387 178.329 262.253 181.022 262.12C183.742 261.987 186.422 261.853 189.062 261.72L188.902 266.44C185.489 266.653 182.036 266.867 178.542 267.08C175.049 267.293 171.702 267.48 168.502 267.64C165.329 267.827 162.462 268 159.902 268.16L159.302 263.08ZM179.542 255.44L184.182 253.32C185.356 254.76 186.529 256.307 187.702 257.96C188.876 259.613 189.956 261.24 190.942 262.84C191.956 264.413 192.782 265.853 193.422 267.16L188.422 269.8C187.889 268.493 187.129 267.013 186.142 265.36C185.156 263.68 184.089 261.973 182.942 260.24C181.796 258.507 180.662 256.907 179.542 255.44ZM167.542 232.92L173.022 234.44C172.169 236.547 171.142 238.613 169.942 240.64C168.769 242.667 167.516 244.56 166.182 246.32C164.849 248.053 163.502 249.56 162.142 250.84C161.822 250.467 161.369 250.067 160.782 249.64C160.222 249.187 159.636 248.747 159.022 248.32C158.436 247.867 157.929 247.507 157.502 247.24C158.889 246.147 160.209 244.84 161.462 243.32C162.742 241.8 163.902 240.147 164.942 238.36C165.982 236.573 166.849 234.76 167.542 232.92ZM183.662 233C184.249 234.173 184.942 235.387 185.742 236.64C186.569 237.893 187.462 239.133 188.422 240.36C189.409 241.56 190.396 242.707 191.382 243.8C192.369 244.867 193.316 245.827 194.222 246.68C193.796 247 193.329 247.413 192.822 247.92C192.316 248.4 191.822 248.907 191.342 249.44C190.862 249.947 190.476 250.427 190.182 250.88C189.222 249.867 188.236 248.733 187.222 247.48C186.209 246.2 185.196 244.867 184.182 243.48C183.196 242.067 182.236 240.64 181.302 239.2C180.396 237.76 179.569 236.347 178.822 234.96L183.662 233ZM224.302 234.64L227.462 232C228.076 232.4 228.716 232.867 229.382 233.4C230.076 233.933 230.716 234.467 231.302 235C231.916 235.533 232.409 236.013 232.782 236.44L229.382 239.36C229.062 238.88 228.609 238.373 228.022 237.84C227.462 237.28 226.849 236.72 226.182 236.16C225.542 235.6 224.916 235.093 224.302 234.64ZM197.782 238.84H233.782V243.52H197.782V238.84ZM199.302 248.08H216.622V252.72H199.302V248.08ZM205.342 250.72H210.142V264.28H205.342V250.72ZM197.782 263.64C199.382 263.373 201.262 263.067 203.422 262.72C205.609 262.347 207.916 261.947 210.342 261.52C212.796 261.093 215.236 260.653 217.662 260.2L217.982 264.48C215.796 264.96 213.582 265.44 211.342 265.92C209.102 266.373 206.942 266.813 204.862 267.24C202.782 267.693 200.862 268.107 199.102 268.48L197.782 263.64ZM217.462 232.16H222.622C222.542 235.467 222.582 238.693 222.742 241.84C222.929 244.987 223.222 247.933 223.622 250.68C224.022 253.427 224.502 255.84 225.062 257.92C225.622 260 226.236 261.627 226.902 262.8C227.596 263.973 228.329 264.56 229.102 264.56C229.556 264.56 229.889 263.987 230.102 262.84C230.342 261.693 230.516 259.853 230.622 257.32C231.182 257.88 231.849 258.427 232.622 258.96C233.422 259.493 234.156 259.88 234.822 260.12C234.609 262.653 234.249 264.613 233.742 266C233.262 267.36 232.609 268.293 231.782 268.8C230.982 269.333 229.942 269.6 228.662 269.6C227.222 269.6 225.942 269.107 224.822 268.12C223.702 267.133 222.729 265.773 221.902 264.04C221.076 262.28 220.382 260.213 219.822 257.84C219.262 255.467 218.809 252.893 218.462 250.12C218.116 247.32 217.862 244.4 217.702 241.36C217.542 238.32 217.462 235.253 217.462 232.16ZM247.077 236.085V272.179H236.808V268.244H242.134V240.034H236.808V236.085H247.077ZM272.764 233.92C272.711 234.373 272.658 234.96 272.604 235.68C272.578 236.4 272.551 237 272.524 237.48C272.418 241.453 272.084 244.987 271.524 248.08C270.964 251.147 270.164 253.867 269.124 256.24C268.084 258.613 266.764 260.747 265.164 262.64C263.564 264.507 261.658 266.227 259.444 267.8L254.804 264.04C255.631 263.56 256.511 263 257.444 262.36C258.404 261.693 259.271 260.947 260.044 260.12C261.351 258.84 262.458 257.44 263.364 255.92C264.271 254.373 264.991 252.693 265.524 250.88C266.084 249.04 266.498 247.027 266.764 244.84C267.031 242.653 267.164 240.24 267.164 237.6C267.164 237.307 267.151 236.933 267.124 236.48C267.098 236 267.058 235.533 267.004 235.08C266.978 234.627 266.938 234.24 266.884 233.92H272.764ZM286.364 242.48C286.311 242.8 286.244 243.173 286.164 243.6C286.111 244.027 286.084 244.36 286.084 244.6C286.058 245.453 286.004 246.547 285.924 247.88C285.871 249.213 285.778 250.653 285.644 252.2C285.538 253.72 285.391 255.24 285.204 256.76C285.044 258.28 284.844 259.693 284.604 261C284.364 262.28 284.071 263.333 283.724 264.16C283.298 265.173 282.671 265.933 281.844 266.44C281.044 266.973 279.951 267.24 278.564 267.24C277.418 267.24 276.271 267.2 275.124 267.12C273.978 267.067 272.911 267 271.924 266.92L271.324 261.56C272.311 261.747 273.298 261.893 274.284 262C275.271 262.08 276.151 262.12 276.924 262.12C277.591 262.12 278.084 262.013 278.404 261.8C278.724 261.56 278.991 261.2 279.204 260.72C279.418 260.187 279.618 259.48 279.804 258.6C279.991 257.72 280.151 256.733 280.284 255.64C280.418 254.547 280.524 253.413 280.604 252.24C280.711 251.067 280.778 249.933 280.804 248.84C280.858 247.72 280.884 246.733 280.884 245.88H261.364C260.698 245.88 259.871 245.893 258.884 245.92C257.898 245.92 256.964 245.96 256.084 246.04V240.8C256.938 240.88 257.844 240.947 258.804 241C259.764 241.053 260.618 241.08 261.364 241.08H279.884C280.391 241.08 280.898 241.053 281.404 241C281.938 240.947 282.431 240.88 282.884 240.8L286.364 242.48ZM299.284 264.4C299.524 263.893 299.671 263.453 299.724 263.08C299.778 262.707 299.804 262.28 299.804 261.8C299.804 261.293 299.804 260.52 299.804 259.48C299.804 258.44 299.804 257.24 299.804 255.88C299.804 254.493 299.804 253.04 299.804 251.52C299.804 250 299.804 248.507 299.804 247.04C299.804 245.573 299.804 244.24 299.804 243.04C299.804 241.84 299.804 240.867 299.804 240.12C299.804 239.613 299.778 239.08 299.724 238.52C299.698 237.96 299.644 237.427 299.564 236.92C299.511 236.387 299.444 235.933 299.364 235.56H305.644C305.538 236.333 305.444 237.093 305.364 237.84C305.284 238.587 305.244 239.347 305.244 240.12C305.244 240.76 305.244 241.56 305.244 242.52C305.244 243.453 305.244 244.493 305.244 245.64C305.244 246.787 305.244 247.973 305.244 249.2C305.244 250.427 305.244 251.64 305.244 252.84C305.244 254.04 305.244 255.173 305.244 256.24C305.244 257.307 305.244 258.24 305.244 259.04C305.244 259.84 305.244 260.467 305.244 260.92C306.871 260.44 308.604 259.787 310.444 258.96C312.311 258.107 314.178 257.107 316.044 255.96C317.938 254.787 319.711 253.507 321.364 252.12C323.044 250.733 324.524 249.253 325.804 247.68L328.644 252.2C325.924 255.48 322.551 258.32 318.524 260.72C314.524 263.093 310.164 265.053 305.444 266.6C305.178 266.707 304.831 266.84 304.404 267C303.978 267.16 303.538 267.387 303.084 267.68L299.284 264.4ZM341.124 235.6C341.818 236.08 342.631 236.667 343.564 237.36C344.498 238.053 345.458 238.813 346.444 239.64C347.458 240.44 348.404 241.227 349.284 242C350.164 242.773 350.884 243.467 351.444 244.08L347.364 248.24C346.858 247.68 346.191 247.013 345.364 246.24C344.538 245.467 343.644 244.667 342.684 243.84C341.724 243.013 340.778 242.227 339.844 241.48C338.911 240.733 338.084 240.107 337.364 239.6L341.124 235.6ZM336.124 262.24C338.204 261.947 340.164 261.533 342.004 261C343.844 260.467 345.551 259.853 347.124 259.16C348.698 258.467 350.138 257.747 351.444 257C353.711 255.64 355.791 254.093 357.684 252.36C359.578 250.627 361.231 248.827 362.644 246.96C364.058 245.067 365.178 243.227 366.004 241.44L369.124 247.08C368.111 248.867 366.858 250.653 365.364 252.44C363.898 254.227 362.231 255.933 360.364 257.56C358.498 259.16 356.484 260.6 354.324 261.88C352.964 262.707 351.498 263.493 349.924 264.24C348.351 264.96 346.684 265.6 344.924 266.16C343.191 266.747 341.378 267.2 339.484 267.52L336.124 262.24ZM402.644 233.16C402.991 233.613 403.351 234.187 403.724 234.88C404.124 235.547 404.511 236.213 404.884 236.88C405.258 237.547 405.564 238.133 405.804 238.64L402.604 240C402.204 239.173 401.711 238.24 401.124 237.2C400.564 236.133 400.018 235.213 399.484 234.44L402.644 233.16ZM407.364 231.32C407.711 231.827 408.084 232.427 408.484 233.12C408.911 233.787 409.311 234.453 409.684 235.12C410.084 235.76 410.391 236.307 410.604 236.76L407.444 238.16C407.018 237.307 406.511 236.36 405.924 235.32C405.338 234.28 404.764 233.387 404.204 232.64L407.364 231.32ZM387.684 248.2C388.911 248.92 390.258 249.76 391.724 250.72C393.191 251.653 394.658 252.627 396.124 253.64C397.618 254.653 399.018 255.64 400.324 256.6C401.658 257.533 402.791 258.387 403.724 259.16L399.884 263.68C399.004 262.853 397.911 261.92 396.604 260.88C395.324 259.84 393.938 258.773 392.444 257.68C390.951 256.56 389.484 255.493 388.044 254.48C386.604 253.467 385.298 252.587 384.124 251.84L387.684 248.2ZM406.484 241.4C406.271 241.773 406.044 242.227 405.804 242.76C405.564 243.267 405.351 243.773 405.164 244.28C404.764 245.507 404.218 246.867 403.524 248.36C402.858 249.853 402.058 251.387 401.124 252.96C400.191 254.533 399.124 256.067 397.924 257.56C396.058 259.88 393.791 262.107 391.124 264.24C388.458 266.347 385.218 268.133 381.404 269.6L376.764 265.56C379.538 264.68 381.951 263.667 384.004 262.52C386.058 261.347 387.844 260.093 389.364 258.76C390.884 257.427 392.204 256.093 393.324 254.76C394.231 253.693 395.084 252.52 395.884 251.24C396.684 249.933 397.378 248.64 397.964 247.36C398.578 246.08 399.004 244.933 399.244 243.92H385.724L387.564 239.36H398.964C399.578 239.36 400.191 239.32 400.804 239.24C401.444 239.16 401.991 239.04 402.444 238.88L406.484 241.4ZM393.284 235.28C392.804 235.973 392.324 236.72 391.844 237.52C391.391 238.32 391.044 238.933 390.804 239.36C389.924 240.933 388.778 242.627 387.364 244.44C385.978 246.253 384.418 248.013 382.684 249.72C380.978 251.427 379.164 252.947 377.244 254.28L372.924 250.92C375.271 249.48 377.258 247.96 378.884 246.36C380.538 244.733 381.911 243.173 383.004 241.68C384.124 240.16 385.018 238.813 385.684 237.64C386.004 237.16 386.338 236.52 386.684 235.72C387.058 234.893 387.324 234.147 387.484 233.48L393.284 235.28ZM415.164 247.48C415.644 247.507 416.258 247.547 417.004 247.6C417.751 247.627 418.524 247.653 419.324 247.68C420.151 247.707 420.911 247.72 421.604 247.72C422.271 247.72 423.098 247.72 424.084 247.72C425.071 247.72 426.138 247.72 427.284 247.72C428.458 247.72 429.658 247.72 430.884 247.72C432.138 247.72 433.378 247.72 434.604 247.72C435.831 247.72 436.991 247.72 438.084 247.72C439.178 247.72 440.151 247.72 441.004 247.72C441.884 247.72 442.578 247.72 443.084 247.72C444.018 247.72 444.898 247.693 445.724 247.64C446.551 247.56 447.231 247.507 447.764 247.48V253.76C447.311 253.733 446.631 253.693 445.724 253.64C444.818 253.587 443.938 253.56 443.084 253.56C442.578 253.56 441.884 253.56 441.004 253.56C440.124 253.56 439.138 253.56 438.044 253.56C436.951 253.56 435.791 253.56 434.564 253.56C433.364 253.56 432.138 253.56 430.884 253.56C429.631 253.56 428.418 253.56 427.244 253.56C426.098 253.56 425.031 253.56 424.044 253.56C423.084 253.56 422.271 253.56 421.604 253.56C420.458 253.56 419.284 253.587 418.084 253.64C416.884 253.667 415.911 253.707 415.164 253.76V247.48ZM464.124 242.72H478.924V246.72H464.124V242.72ZM454.284 264.84H488.844V268.8H454.284V264.84ZM456.604 233.48H467.804V237.36H456.604V233.48ZM466.284 233.48H467.124L467.924 233.28L471.084 234.88C470.338 236.827 469.404 238.653 468.284 240.36C467.164 242.04 465.898 243.587 464.484 245C463.071 246.413 461.564 247.68 459.964 248.8C458.364 249.893 456.724 250.853 455.044 251.68C454.751 251.173 454.311 250.573 453.724 249.88C453.164 249.16 452.644 248.6 452.164 248.2C453.658 247.56 455.124 246.76 456.564 245.8C458.031 244.84 459.391 243.747 460.644 242.52C461.924 241.293 463.044 239.987 464.004 238.6C464.991 237.213 465.751 235.787 466.284 234.32V233.48ZM475.444 232.16C476.351 234.32 477.551 236.373 479.044 238.32C480.564 240.267 482.311 242 484.284 243.52C486.284 245.04 488.431 246.24 490.724 247.12C490.378 247.44 489.991 247.84 489.564 248.32C489.164 248.773 488.778 249.253 488.404 249.76C488.058 250.24 487.764 250.693 487.524 251.12C485.071 250 482.818 248.56 480.764 246.8C478.738 245.04 476.938 243.027 475.364 240.76C473.791 238.493 472.444 236.053 471.324 233.44L475.444 232.16ZM454.684 240.68L457.284 238.04C457.871 238.387 458.484 238.773 459.124 239.2C459.764 239.627 460.364 240.067 460.924 240.52C461.511 240.973 461.978 241.4 462.324 241.8L459.604 244.72C459.098 244.133 458.364 243.453 457.404 242.68C456.471 241.907 455.564 241.24 454.684 240.68ZM481.564 232.4L485.204 234.96C484.084 235.893 482.911 236.813 481.684 237.72C480.484 238.627 479.378 239.4 478.364 240.04L475.524 237.8C476.164 237.347 476.858 236.813 477.604 236.2C478.351 235.56 479.071 234.907 479.764 234.24C480.484 233.573 481.084 232.96 481.564 232.4ZM486.084 237.04L489.604 239.52C488.484 240.507 487.271 241.493 485.964 242.48C484.684 243.467 483.511 244.28 482.444 244.92L479.564 242.68C480.284 242.2 481.031 241.64 481.804 241C482.604 240.36 483.378 239.693 484.124 239C484.898 238.307 485.551 237.653 486.084 237.04ZM464.524 252.8V256.36H478.204V252.8H464.524ZM459.844 249H483.164V260.16H459.844V249ZM462.164 260.68L466.564 259.56C467.071 260.28 467.524 261.093 467.924 262C468.351 262.907 468.658 263.707 468.844 264.4L464.204 265.72C464.071 265.027 463.804 264.2 463.404 263.24C463.031 262.28 462.618 261.427 462.164 260.68ZM476.404 259.48L481.084 260.48C480.578 261.467 480.098 262.4 479.644 263.28C479.191 264.16 478.751 264.92 478.324 265.56L474.124 264.6C474.418 264.12 474.698 263.587 474.964 263C475.258 262.387 475.524 261.773 475.764 261.16C476.031 260.547 476.244 259.987 476.404 259.48ZM526.564 250L530.284 252.32C529.484 253.227 528.658 254.133 527.804 255.04C526.951 255.92 526.164 256.693 525.444 257.36L522.444 255.32C522.898 254.867 523.378 254.333 523.884 253.72C524.391 253.107 524.884 252.48 525.364 251.84C525.844 251.173 526.244 250.56 526.564 250ZM508.764 252.6L511.884 250.6C512.684 251.32 513.484 252.16 514.284 253.12C515.084 254.053 515.671 254.893 516.044 255.64L512.684 257.88C512.364 257.133 511.818 256.267 511.044 255.28C510.298 254.267 509.538 253.373 508.764 252.6ZM510.484 233.36H527.004V247.44H522.564V237.28H510.484V233.36ZM511.364 239.44H525.044V243.08H511.364V239.44ZM508.564 245.16H529.964V249.2H508.564V245.16ZM516.804 247.24H521.244V265.04C521.244 266.053 521.138 266.853 520.924 267.44C520.738 268.053 520.338 268.52 519.724 268.84C519.111 269.187 518.391 269.4 517.564 269.48C516.738 269.56 515.778 269.6 514.684 269.6C514.631 268.987 514.484 268.293 514.244 267.52C514.031 266.747 513.804 266.053 513.564 265.44C514.124 265.467 514.658 265.48 515.164 265.48C515.698 265.48 516.058 265.48 516.244 265.48C516.484 265.48 516.631 265.44 516.684 265.36C516.764 265.28 516.804 265.147 516.804 264.96V247.24ZM507.404 263C508.418 262.44 509.631 261.72 511.044 260.84C512.458 259.933 513.898 259 515.364 258.04L516.844 261.68C515.644 262.56 514.418 263.453 513.164 264.36C511.938 265.267 510.751 266.107 509.604 266.88L507.404 263ZM521.124 250.08C521.444 251.253 521.871 252.48 522.404 253.76C522.964 255.04 523.631 256.307 524.404 257.56C525.204 258.813 526.138 259.96 527.204 261C528.298 262.013 529.538 262.867 530.924 263.56C530.604 263.853 530.244 264.24 529.844 264.72C529.471 265.173 529.098 265.64 528.724 266.12C528.351 266.627 528.058 267.093 527.844 267.52C526.538 266.667 525.364 265.64 524.324 264.44C523.311 263.24 522.418 261.947 521.644 260.56C520.871 259.147 520.218 257.76 519.684 256.4C519.178 255.04 518.764 253.773 518.444 252.6L521.124 250.08ZM495.484 242H507.324V246H495.484V242ZM493.564 248.92H508.204V252.96H493.564V248.92ZM493.964 255.24L497.044 254.44C497.364 255.56 497.658 256.773 497.924 258.08C498.191 259.36 498.364 260.467 498.444 261.4L495.204 262.28C495.178 261.293 495.044 260.16 494.804 258.88C494.564 257.573 494.284 256.36 493.964 255.24ZM493.124 264.36C494.404 264.173 495.858 263.947 497.484 263.68C499.111 263.387 500.818 263.08 502.604 262.76C504.418 262.44 506.231 262.12 508.044 261.8L508.364 265.8C505.884 266.307 503.378 266.813 500.844 267.32C498.338 267.853 496.071 268.32 494.044 268.72L493.124 264.36ZM505.044 254.16L508.484 254.96C508.164 256.107 507.831 257.267 507.484 258.44C507.164 259.613 506.858 260.613 506.564 261.44L503.644 260.68C503.831 260.067 504.004 259.373 504.164 258.6C504.351 257.827 504.524 257.053 504.684 256.28C504.844 255.48 504.964 254.773 505.044 254.16ZM499.044 243.6H503.204V265.12L499.044 265.88V243.6ZM498.844 232H501.364V232.92H502.724V234.16C501.951 235.653 500.924 237.373 499.644 239.32C498.364 241.24 496.738 243.093 494.764 244.88C494.578 244.56 494.311 244.2 493.964 243.8C493.618 243.4 493.258 243.013 492.884 242.64C492.538 242.267 492.204 241.973 491.884 241.76C493.031 240.8 494.044 239.773 494.924 238.68C495.804 237.56 496.578 236.427 497.244 235.28C497.911 234.133 498.444 233.04 498.844 232ZM499.484 232H502.804C503.578 232.667 504.391 233.413 505.244 234.24C506.098 235.067 506.898 235.893 507.644 236.72C508.418 237.52 509.044 238.267 509.524 238.96L506.444 242.64C506.044 241.947 505.498 241.16 504.804 240.28C504.111 239.373 503.364 238.493 502.564 237.64C501.791 236.76 501.031 236.013 500.284 235.4H499.484V232ZM550.404 234.84C550.671 235.32 550.991 236.027 551.364 236.96C551.764 237.867 552.164 238.867 552.564 239.96C552.991 241.027 553.391 242.067 553.764 243.08C554.138 244.067 554.418 244.893 554.604 245.56L549.564 247.32C549.404 246.68 549.138 245.88 548.764 244.92C548.418 243.933 548.044 242.92 547.644 241.88C547.244 240.813 546.844 239.8 546.444 238.84C546.044 237.88 545.698 237.093 545.404 236.48L550.404 234.84ZM568.684 238.04C568.444 238.52 568.231 239.04 568.044 239.6C567.884 240.16 567.751 240.68 567.644 241.16C567.271 242.6 566.764 244.213 566.124 246C565.511 247.787 564.764 249.573 563.884 251.36C563.031 253.12 562.044 254.733 560.924 256.2C559.538 258.04 557.978 259.72 556.244 261.24C554.538 262.733 552.751 264.04 550.884 265.16C549.018 266.28 547.124 267.2 545.204 267.92L540.724 263.44C542.564 262.907 544.431 262.16 546.324 261.2C548.244 260.24 550.084 259.08 551.844 257.72C553.631 256.36 555.191 254.827 556.524 253.12C557.538 251.84 558.458 250.28 559.284 248.44C560.138 246.6 560.858 244.64 561.444 242.56C562.058 240.453 562.471 238.373 562.684 236.32L568.684 238.04ZM539.284 237.32C539.578 237.933 539.938 238.733 540.364 239.72C540.818 240.707 541.271 241.747 541.724 242.84C542.178 243.933 542.591 244.987 542.964 246C543.364 246.987 543.684 247.827 543.924 248.52L538.764 250.4C538.604 249.867 538.378 249.213 538.084 248.44C537.818 247.667 537.498 246.827 537.124 245.92C536.778 245.013 536.418 244.12 536.044 243.24C535.671 242.36 535.324 241.56 535.004 240.84C534.684 240.12 534.404 239.533 534.164 239.08L539.284 237.32ZM575.164 247.48C575.644 247.507 576.258 247.547 577.004 247.6C577.751 247.627 578.524 247.653 579.324 247.68C580.151 247.707 580.911 247.72 581.604 247.72C582.271 247.72 583.098 247.72 584.084 247.72C585.071 247.72 586.138 247.72 587.284 247.72C588.458 247.72 589.658 247.72 590.884 247.72C592.138 247.72 593.378 247.72 594.604 247.72C595.831 247.72 596.991 247.72 598.084 247.72C599.178 247.72 600.151 247.72 601.004 247.72C601.884 247.72 602.578 247.72 603.084 247.72C604.018 247.72 604.898 247.693 605.724 247.64C606.551 247.56 607.231 247.507 607.764 247.48V253.76C607.311 253.733 606.631 253.693 605.724 253.64C604.818 253.587 603.938 253.56 603.084 253.56C602.578 253.56 601.884 253.56 601.004 253.56C600.124 253.56 599.138 253.56 598.044 253.56C596.951 253.56 595.791 253.56 594.564 253.56C593.364 253.56 592.138 253.56 590.884 253.56C589.631 253.56 588.418 253.56 587.244 253.56C586.098 253.56 585.031 253.56 584.044 253.56C583.084 253.56 582.271 253.56 581.604 253.56C580.458 253.56 579.284 253.587 578.084 253.64C576.884 253.667 575.911 253.707 575.164 253.76V247.48ZM631.604 265.12C631.684 264.72 631.751 264.267 631.804 263.76C631.884 263.227 631.924 262.693 631.924 262.16C631.924 261.867 631.924 261.28 631.924 260.4C631.924 259.52 631.924 258.453 631.924 257.2C631.924 255.947 631.924 254.6 631.924 253.16C631.924 251.693 631.924 250.213 631.924 248.72C631.924 247.227 631.924 245.827 631.924 244.52C631.924 243.187 631.924 242.027 631.924 241.04C631.924 240.027 631.924 239.293 631.924 238.84C631.924 237.933 631.871 237.147 631.764 236.48C631.684 235.813 631.631 235.453 631.604 235.4H637.564C637.538 235.453 637.484 235.827 637.404 236.52C637.324 237.187 637.284 237.973 637.284 238.88C637.284 239.333 637.284 240.013 637.284 240.92C637.284 241.8 637.284 242.827 637.284 244C637.284 245.147 637.284 246.373 637.284 247.68C637.284 248.987 637.284 250.28 637.284 251.56C637.284 252.813 637.284 254.013 637.284 255.16C637.284 256.28 637.284 257.24 637.284 258.04C637.284 258.84 637.284 259.427 637.284 259.8C638.378 259.32 639.511 258.667 640.684 257.84C641.858 257.013 643.004 256.053 644.124 254.96C645.271 253.84 646.284 252.64 647.164 251.36L650.244 255.76C649.151 257.2 647.818 258.613 646.244 260C644.698 261.387 643.098 262.653 641.444 263.8C639.791 264.947 638.204 265.907 636.684 266.68C636.258 266.92 635.911 267.133 635.644 267.32C635.378 267.533 635.151 267.72 634.964 267.88L631.604 265.12ZM613.084 264.52C614.844 263.293 616.284 261.813 617.404 260.08C618.524 258.347 619.351 256.64 619.884 254.96C620.178 254.08 620.391 253 620.524 251.72C620.684 250.413 620.804 249.027 620.884 247.56C620.964 246.067 621.004 244.6 621.004 243.16C621.031 241.693 621.044 240.347 621.044 239.12C621.044 238.32 621.004 237.64 620.924 237.08C620.871 236.493 620.791 235.947 620.684 235.44H626.564C626.538 235.493 626.498 235.72 626.444 236.12C626.418 236.493 626.378 236.947 626.324 237.48C626.298 237.987 626.284 238.52 626.284 239.08C626.284 240.253 626.271 241.627 626.244 243.2C626.218 244.747 626.164 246.333 626.084 247.96C626.004 249.587 625.884 251.133 625.724 252.6C625.564 254.04 625.351 255.267 625.084 256.28C624.471 258.547 623.551 260.653 622.324 262.6C621.124 264.52 619.671 266.24 617.964 267.76L613.084 264.52Z" fill="#333333"/>
<g opacity="0.8">
<path d="M140.473 404L158.432 417.321L137 423.696L140.473 404Z" fill="#FFAEAE"/>
<path d="M670 70.1763L691.907 74.6591L675.176 89.4948L670 70.1763Z" fill="#82E2F7"/>
<path d="M509 416C514.523 416 519 411.523 519 406C519 400.477 514.523 396 509 396C503.477 396 499 400.477 499 406C499 411.523 503.477 416 509 416Z" fill="#FFD9DD"/>
<path d="M878 482C882.418 482 886 478.418 886 474C886 469.582 882.418 466 878 466C873.582 466 870 469.582 870 474C870 478.418 873.582 482 878 482Z" fill="#B19CFF"/>
</g>
<g opacity="0.8">
<path d="M211 59C233.091 59 251 41.0914 251 19C251 -3.09139 233.091 -21 211 -21C188.909 -21 171 -3.09139 171 19C171 41.0914 188.909 59 211 59Z" fill="url(#paint3_radial_616_4)"/>
<path d="M115 121C131.569 121 145 107.569 145 91C145 74.4315 131.569 61 115 61C98.4315 61 85 74.4315 85 91C85 107.569 98.4315 121 115 121Z" fill="url(#paint4_radial_616_4)"/>
</g>
</g>
<defs>
<linearGradient id="paint0_linear_616_4" x1="0" y1="0" x2="51856.9" y2="98775.1" gradientUnits="userSpaceOnUse">
<stop stop-color="#E4F2EE"/>
<stop offset="1" stop-color="#2563EB"/>
</linearGradient>
<radialGradient id="paint1_radial_616_4" cx="0" cy="0" r="1" gradientUnits="userSpaceOnUse" gradientTransform="translate(4991 4394) scale(4000 4300)">
<stop stop-color="#C9E0FF"/>
<stop offset="1" stop-color="#B19CFF" stop-opacity="0.64"/>
</radialGradient>
<radialGradient id="paint2_radial_616_4" cx="0" cy="0" r="1" gradientUnits="userSpaceOnUse" gradientTransform="translate(6226 7357) scale(6000 7000)">
<stop stop-color="#FFD9DD"/>
<stop offset="1" stop-color="#FFC599" stop-opacity="0.7"/>
</radialGradient>
<radialGradient id="paint3_radial_616_4" cx="0" cy="0" r="1" gradientUnits="userSpaceOnUse" gradientTransform="translate(4171 3979) scale(4000)">
<stop stop-color="#C9E0FF"/>
<stop offset="1" stop-color="#B19CFF" stop-opacity="0.65"/>
</radialGradient>
<radialGradient id="paint4_radial_616_4" cx="0" cy="0" r="1" gradientUnits="userSpaceOnUse" gradientTransform="translate(3085 3061) scale(3000)">
<stop stop-color="#FFF4CC"/>
<stop offset="1" stop-color="#FEE69C"/>
</radialGradient>
<clipPath id="clip0_616_4">
<rect width="1200" height="630" fill="white"/>
</clipPath>
</defs>
</svg>
