<svg width="1200" height="630" viewBox="0 0 1200 630" fill="none" xmlns="http://www.w3.org/2000/svg">
<g clip-path="url(#clip0_616_4)">
<path d="M1200 0H0V630H1200V0Z" fill="url(#paint0_linear_616_4)"/>
<path d="M153.856 166.176C153.856 170.64 153.52 174.696 152.848 178.344C152.224 181.944 151.12 185.232 149.536 188.208C147.952 191.136 145.744 193.776 142.912 196.128C140.08 198.48 136.504 200.616 132.184 202.536L124.48 195.264C127.936 194.064 130.912 192.72 133.408 191.232C135.952 189.744 138.04 187.92 139.672 185.76C141.304 183.552 142.504 180.912 143.272 177.84C144.088 174.72 144.496 170.952 144.496 166.536V147.384C144.496 145.896 144.448 144.6 144.352 143.496C144.256 142.344 144.16 141.408 144.064 140.688H154.36C154.264 141.408 154.144 142.344 154 143.496C153.904 144.6 153.856 145.896 153.856 147.384V166.176ZM127.864 141.336C127.768 142.008 127.672 142.92 127.576 144.072C127.48 145.176 127.432 146.424 127.432 147.816V173.592C127.432 174.648 127.456 175.68 127.504 176.688C127.552 177.648 127.576 178.512 127.576 179.28C127.624 180 127.672 180.624 127.72 181.152H117.64C117.736 180.624 117.808 180 117.856 179.28C117.904 178.512 117.952 177.648 118 176.688C118.048 175.68 118.072 174.648 118.072 173.592V147.816C118.072 146.76 118.024 145.68 117.928 144.576C117.88 143.472 117.784 142.392 117.64 141.336H127.864ZM104.104 154.296C104.584 154.344 105.208 154.44 105.976 154.584C106.744 154.68 107.632 154.776 108.64 154.872C109.648 154.92 110.752 154.944 111.952 154.944H159.184C161.104 154.944 162.664 154.896 163.864 154.8C165.064 154.704 166.144 154.584 167.104 154.44V164.016C166.336 163.92 165.304 163.872 164.008 163.872C162.712 163.824 161.104 163.8 159.184 163.8H111.952C110.752 163.8 109.648 163.824 108.64 163.872C107.68 163.872 106.816 163.896 106.048 163.944C105.328 163.992 104.68 164.04 104.104 164.088V154.296ZM189.352 143.28C190.6 144.144 192.064 145.2 193.744 146.448C195.424 147.696 197.152 149.064 198.928 150.552C200.752 151.992 202.456 153.408 204.04 154.8C205.624 156.192 206.92 157.44 207.928 158.544L200.584 166.032C199.672 165.024 198.472 163.824 196.984 162.432C195.496 161.04 193.888 159.6 192.16 158.112C190.432 156.624 188.728 155.208 187.048 153.864C185.368 152.52 183.88 151.392 182.584 150.48L189.352 143.28ZM180.352 191.232C184.096 190.704 187.624 189.96 190.936 189C194.248 188.04 197.32 186.936 200.152 185.688C202.984 184.44 205.576 183.144 207.928 181.8C212.008 179.352 215.752 176.568 219.16 173.448C222.568 170.328 225.544 167.088 228.088 163.728C230.632 160.32 232.648 157.008 234.136 153.792L239.752 163.944C237.928 167.16 235.672 170.376 232.984 173.592C230.344 176.808 227.344 179.88 223.984 182.808C220.624 185.688 217 188.28 213.112 190.584C210.664 192.072 208.024 193.488 205.192 194.832C202.36 196.128 199.36 197.28 196.192 198.288C193.072 199.344 189.808 200.16 186.4 200.736L180.352 191.232ZM301.816 142.128C301.768 143.136 301.696 144.24 301.6 145.44C301.552 146.592 301.528 147.888 301.528 149.328C301.528 150.576 301.528 152.088 301.528 153.864C301.528 155.64 301.528 157.416 301.528 159.192C301.528 160.92 301.528 162.384 301.528 163.584C301.528 167.424 301.336 170.784 300.952 173.664C300.616 176.544 300.088 179.064 299.368 181.224C298.648 183.384 297.76 185.304 296.704 186.984C295.696 188.616 294.52 190.176 293.176 191.664C291.592 193.392 289.768 194.952 287.704 196.344C285.64 197.688 283.552 198.816 281.44 199.728C279.376 200.688 277.456 201.456 275.68 202.032L268.12 194.112C271.72 193.296 274.96 192.168 277.84 190.728C280.768 189.24 283.312 187.344 285.472 185.04C286.72 183.648 287.728 182.256 288.496 180.864C289.264 179.472 289.84 177.936 290.224 176.256C290.656 174.528 290.944 172.584 291.088 170.424C291.28 168.264 291.376 165.792 291.376 163.008C291.376 161.76 291.376 160.272 291.376 158.544C291.376 156.816 291.376 155.112 291.376 153.432C291.376 151.752 291.376 150.384 291.376 149.328C291.376 147.888 291.328 146.592 291.232 145.44C291.184 144.24 291.088 143.136 290.944 142.128H301.816ZM268.408 142.704C268.36 143.568 268.312 144.432 268.264 145.296C268.216 146.112 268.192 147.096 268.192 148.248C268.192 148.776 268.192 149.64 268.192 150.84C268.192 152.04 268.192 153.456 268.192 155.088C268.192 156.672 268.192 158.352 268.192 160.128C268.192 161.856 268.192 163.536 268.192 165.168C268.192 166.8 268.192 168.288 268.192 169.632C268.192 170.928 268.192 171.912 268.192 172.584C268.192 173.496 268.216 174.552 268.264 175.752C268.312 176.952 268.36 177.984 268.408 178.848H257.968C258.016 178.176 258.088 177.216 258.184 175.968C258.28 174.72 258.328 173.568 258.328 172.512C258.328 171.84 258.328 170.856 258.328 169.56C258.328 168.264 258.328 166.8 258.328 165.168C258.328 163.488 258.328 161.784 258.328 160.056C258.328 158.28 258.328 156.6 258.328 155.016C258.328 153.432 258.328 152.04 258.328 150.84C258.328 149.64 258.328 148.776 258.328 148.248C258.328 147.576 258.304 146.712 258.256 145.656C258.208 144.552 258.136 143.568 258.04 142.704H268.408ZM365.248 140.328C365.104 141.432 364.984 142.632 364.888 143.928C364.84 145.224 364.816 146.448 364.816 147.6C364.864 149.616 364.912 151.8 364.96 154.152C365.008 156.504 365.056 159 365.104 161.64C365.2 164.28 365.272 166.992 365.32 169.776C365.368 172.512 365.416 175.272 365.464 178.056C365.512 180.792 365.56 183.504 365.608 186.192C365.656 188.832 365.704 191.376 365.752 193.824C365.8 196.128 365.152 197.904 363.808 199.152C362.464 200.448 360.424 201.096 357.688 201.096C355.528 201.096 353.416 201.048 351.352 200.952C349.288 200.904 347.224 200.808 345.16 200.664L344.368 191.304C346 191.592 347.704 191.808 349.48 191.952C351.256 192.096 352.744 192.168 353.944 192.168C354.856 192.168 355.504 191.928 355.888 191.448C356.272 190.968 356.464 190.2 356.464 189.144C356.464 187.512 356.464 185.64 356.464 183.528C356.464 181.368 356.44 179.088 356.392 176.688C356.392 174.24 356.368 171.744 356.32 169.2C356.272 166.608 356.224 164.04 356.176 161.496C356.128 158.952 356.056 156.504 355.96 154.152C355.912 151.8 355.84 149.616 355.744 147.6C355.648 146.016 355.528 144.648 355.384 143.496C355.288 142.296 355.168 141.24 355.024 140.328H365.248ZM324.136 152.28C325.192 152.424 326.464 152.544 327.952 152.64C329.488 152.736 330.88 152.784 332.128 152.784C332.848 152.784 334.072 152.784 335.8 152.784C337.528 152.784 339.568 152.784 341.92 152.784C344.32 152.784 346.864 152.784 349.552 152.784C352.24 152.784 354.904 152.784 357.544 152.784C360.184 152.784 362.656 152.784 364.96 152.784C367.264 152.784 369.208 152.784 370.792 152.784C372.376 152.784 373.408 152.784 373.888 152.784C375.04 152.784 376.36 152.736 377.848 152.64C379.336 152.496 380.512 152.352 381.376 152.208V161.784C380.224 161.736 379 161.688 377.704 161.64C376.456 161.592 375.352 161.568 374.392 161.568C373.96 161.568 372.952 161.568 371.368 161.568C369.784 161.568 367.816 161.568 365.464 161.568C363.16 161.568 360.64 161.568 357.904 161.568C355.168 161.568 352.408 161.568 349.624 161.568C346.888 161.568 344.296 161.568 341.848 161.568C339.448 161.568 337.408 161.568 335.728 161.568C334.048 161.568 332.92 161.568 332.344 161.568C331.048 161.568 329.68 161.592 328.24 161.64C326.8 161.688 325.432 161.76 324.136 161.856V152.28ZM320.32 186.552C324.064 184.776 327.64 182.784 331.048 180.576C334.456 178.368 337.576 176.064 340.408 173.664C343.24 171.264 345.736 168.888 347.896 166.536C350.104 164.136 351.856 161.88 353.152 159.768L357.832 159.84L357.904 167.472C356.464 169.68 354.616 171.984 352.36 174.384C350.104 176.784 347.608 179.184 344.872 181.584C342.136 183.984 339.232 186.264 336.16 188.424C333.088 190.536 330.016 192.408 326.944 194.04L320.32 186.552ZM402.011 145.636L414.668 185.42H415.153L427.835 145.636H440.108L422.057 198H407.79L389.713 145.636H402.011ZM467.325 158.727V166.909H443.087V158.727H467.325ZM448.635 198V155.889C448.635 153.043 449.189 150.682 450.297 148.807C451.422 146.932 452.956 145.526 454.899 144.588C456.842 143.651 459.05 143.182 461.521 143.182C463.192 143.182 464.717 143.31 466.098 143.565C467.496 143.821 468.536 144.051 469.217 144.256L467.274 152.438C466.848 152.301 466.32 152.173 465.689 152.054C465.075 151.935 464.445 151.875 463.797 151.875C462.195 151.875 461.078 152.25 460.447 153C459.817 153.733 459.501 154.764 459.501 156.094V198H448.635ZM490.471 198.767C486.431 198.767 482.954 197.949 480.039 196.312C477.141 194.659 474.908 192.324 473.34 189.307C471.772 186.273 470.988 182.685 470.988 178.543C470.988 174.503 471.772 170.957 473.34 167.906C474.908 164.855 477.116 162.477 479.962 160.773C482.826 159.068 486.184 158.216 490.036 158.216C492.627 158.216 495.039 158.634 497.272 159.469C499.522 160.287 501.482 161.523 503.153 163.176C504.84 164.83 506.153 166.909 507.09 169.415C508.028 171.903 508.496 174.818 508.496 178.159V181.151H475.335V174.401H498.244C498.244 172.832 497.903 171.443 497.221 170.233C496.539 169.023 495.593 168.077 494.383 167.395C493.19 166.696 491.8 166.347 490.215 166.347C488.562 166.347 487.096 166.73 485.817 167.497C484.556 168.247 483.567 169.261 482.852 170.54C482.136 171.801 481.769 173.207 481.752 174.759V181.176C481.752 183.119 482.11 184.798 482.826 186.213C483.559 187.628 484.59 188.719 485.92 189.486C487.249 190.253 488.826 190.636 490.65 190.636C491.86 190.636 492.968 190.466 493.974 190.125C494.979 189.784 495.84 189.273 496.556 188.591C497.272 187.909 497.817 187.074 498.192 186.085L508.266 186.75C507.755 189.17 506.707 191.284 505.121 193.091C503.553 194.881 501.525 196.278 499.036 197.284C496.565 198.273 493.71 198.767 490.471 198.767ZM548.281 169.926L538.309 170.54C538.138 169.687 537.772 168.92 537.21 168.239C536.647 167.54 535.906 166.986 534.985 166.577C534.082 166.151 532.999 165.938 531.738 165.938C530.05 165.938 528.627 166.295 527.468 167.011C526.309 167.71 525.729 168.648 525.729 169.824C525.729 170.761 526.104 171.554 526.854 172.202C527.604 172.849 528.891 173.369 530.715 173.761L537.823 175.193C541.641 175.977 544.488 177.239 546.363 178.977C548.238 180.716 549.175 183 549.175 185.83C549.175 188.403 548.417 190.662 546.9 192.605C545.4 194.548 543.337 196.065 540.712 197.156C538.104 198.23 535.096 198.767 531.687 198.767C526.488 198.767 522.346 197.685 519.261 195.52C516.192 193.338 514.394 190.372 513.866 186.622L524.579 186.06C524.903 187.645 525.687 188.855 526.931 189.69C528.175 190.509 529.769 190.918 531.712 190.918C533.621 190.918 535.156 190.551 536.315 189.818C537.491 189.068 538.087 188.105 538.104 186.929C538.087 185.94 537.67 185.131 536.852 184.5C536.033 183.852 534.772 183.358 533.067 183.017L526.266 181.662C522.431 180.895 519.576 179.565 517.701 177.673C515.843 175.781 514.914 173.369 514.914 170.438C514.914 167.915 515.596 165.741 516.96 163.918C518.34 162.094 520.275 160.688 522.763 159.699C525.269 158.71 528.201 158.216 531.559 158.216C536.519 158.216 540.423 159.264 543.269 161.361C546.133 163.457 547.803 166.312 548.281 169.926ZM572.596 198V190.023L591.235 172.764C592.82 171.23 594.15 169.849 595.224 168.622C596.315 167.395 597.141 166.193 597.704 165.017C598.266 163.824 598.548 162.537 598.548 161.156C598.548 159.622 598.198 158.301 597.499 157.193C596.8 156.068 595.846 155.207 594.636 154.611C593.425 153.997 592.053 153.69 590.519 153.69C588.917 153.69 587.519 154.014 586.326 154.662C585.133 155.31 584.212 156.239 583.565 157.449C582.917 158.659 582.593 160.099 582.593 161.77H572.085C572.085 158.344 572.86 155.369 574.411 152.847C575.962 150.324 578.136 148.372 580.931 146.991C583.727 145.611 586.948 144.92 590.596 144.92C594.346 144.92 597.61 145.585 600.388 146.915C603.184 148.227 605.357 150.051 606.908 152.386C608.46 154.722 609.235 157.398 609.235 160.415C609.235 162.392 608.843 164.344 608.059 166.27C607.292 168.196 605.92 170.335 603.942 172.688C601.965 175.023 599.178 177.827 595.582 181.099L587.937 188.591V188.949H609.925V198H572.596ZM638.479 199.151C634.081 199.134 630.297 198.051 627.126 195.903C623.973 193.756 621.544 190.645 619.839 186.571C618.152 182.497 617.317 177.597 617.334 171.869C617.334 166.159 618.178 161.293 619.865 157.27C621.57 153.247 623.999 150.187 627.152 148.091C630.322 145.977 634.098 144.92 638.479 144.92C642.859 144.92 646.626 145.977 649.78 148.091C652.95 150.205 655.388 153.273 657.092 157.295C658.797 161.301 659.641 166.159 659.624 171.869C659.624 177.614 658.771 182.523 657.067 186.597C655.379 190.67 652.959 193.781 649.805 195.929C646.652 198.077 642.876 199.151 638.479 199.151ZM638.479 189.972C641.479 189.972 643.874 188.463 645.663 185.446C647.453 182.429 648.339 177.903 648.322 171.869C648.322 167.898 647.913 164.591 647.095 161.949C646.294 159.307 645.152 157.321 643.669 155.991C642.203 154.662 640.473 153.997 638.479 153.997C635.496 153.997 633.109 155.489 631.32 158.472C629.53 161.455 628.626 165.92 628.609 171.869C628.609 175.892 629.01 179.25 629.811 181.943C630.629 184.619 631.78 186.631 633.263 187.977C634.746 189.307 636.484 189.972 638.479 189.972ZM667.518 198V190.023L686.157 172.764C687.742 171.23 689.072 169.849 690.146 168.622C691.237 167.395 692.063 166.193 692.626 165.017C693.188 163.824 693.469 162.537 693.469 161.156C693.469 159.622 693.12 158.301 692.421 157.193C691.722 156.068 690.768 155.207 689.558 154.611C688.347 153.997 686.975 153.69 685.441 153.69C683.839 153.69 682.441 154.014 681.248 154.662C680.055 155.31 679.134 156.239 678.487 157.449C677.839 158.659 677.515 160.099 677.515 161.77H667.006C667.006 158.344 667.782 155.369 669.333 152.847C670.884 150.324 673.058 148.372 675.853 146.991C678.648 145.611 681.87 144.92 685.518 144.92C689.268 144.92 692.532 145.585 695.31 146.915C698.106 148.227 700.279 150.051 701.83 152.386C703.381 154.722 704.157 157.398 704.157 160.415C704.157 162.392 703.765 164.344 702.981 166.27C702.214 168.196 700.842 170.335 698.864 172.688C696.887 175.023 694.1 177.827 690.504 181.099L682.859 188.591V188.949H704.847V198H667.518ZM731.994 198.716C728.381 198.716 725.159 198.051 722.33 196.722C719.517 195.392 717.284 193.56 715.631 191.224C713.977 188.889 713.116 186.213 713.048 183.196H723.787C723.906 185.224 724.759 186.869 726.344 188.131C727.929 189.392 729.812 190.023 731.994 190.023C733.733 190.023 735.267 189.639 736.597 188.872C737.943 188.088 738.991 187.006 739.741 185.625C740.509 184.227 740.892 182.625 740.892 180.818C740.892 178.977 740.5 177.358 739.716 175.96C738.949 174.562 737.884 173.472 736.52 172.688C735.156 171.903 733.597 171.503 731.841 171.486C730.307 171.486 728.815 171.801 727.366 172.432C725.935 173.062 724.818 173.923 724.017 175.014L714.173 173.25L716.653 145.636H748.665V154.688H725.781L724.426 167.804H724.733C725.653 166.509 727.043 165.435 728.901 164.582C730.759 163.73 732.838 163.304 735.139 163.304C738.293 163.304 741.105 164.045 743.577 165.528C746.048 167.011 748 169.048 749.432 171.639C750.864 174.213 751.571 177.179 751.554 180.537C751.571 184.065 750.753 187.202 749.099 189.946C747.463 192.673 745.17 194.821 742.222 196.389C739.29 197.94 735.881 198.716 731.994 198.716Z" fill="white"/>
<path d="M104.716 257.909V221.545H113.125V224.33H107.898V255.125H113.125V257.909H104.716ZM139.132 224.48H152.132V227.32H139.132V224.48ZM139.132 242.64H152.812V245.48H139.132V242.64ZM138.972 233.48H151.292V236.24H138.972V233.48ZM117.572 224.48H129.332V227.32H117.572V224.48ZM118.012 233.48H129.252V236.24H118.012V233.48ZM137.572 218.6H140.572V255.2H137.572V218.6ZM116.092 243.48C117.559 243.267 119.266 243.013 121.212 242.72C123.186 242.4 125.266 242.053 127.452 241.68C129.666 241.307 131.879 240.933 134.092 240.56L134.212 243.24C132.132 243.613 130.052 244 127.972 244.4C125.892 244.773 123.892 245.133 121.972 245.48C120.052 245.827 118.292 246.147 116.692 246.44L116.092 243.48ZM128.012 218.6H130.932V237.28C130.932 238.587 130.799 240.053 130.532 241.68C130.266 243.307 129.746 244.987 128.972 246.72C128.199 248.427 127.066 250.053 125.572 251.6C124.106 253.147 122.159 254.493 119.732 255.64C119.492 255.293 119.159 254.893 118.732 254.44C118.306 254.013 117.919 253.653 117.572 253.36C119.386 252.587 120.906 251.68 122.132 250.64C123.386 249.573 124.399 248.44 125.172 247.24C125.946 246.04 126.532 244.84 126.932 243.64C127.359 242.44 127.639 241.293 127.772 240.2C127.932 239.08 128.012 238.107 128.012 237.28V218.6ZM171.212 232.88L174.732 233.8C174.092 235.293 173.399 236.867 172.652 238.52C171.932 240.147 171.186 241.787 170.412 243.44C169.639 245.067 168.852 246.627 168.052 248.12C167.252 249.587 166.492 250.933 165.772 252.16L162.972 251.24C163.692 250.013 164.439 248.64 165.212 247.12C165.986 245.6 166.732 244.013 167.452 242.36C168.199 240.707 168.892 239.067 169.532 237.44C170.172 235.813 170.732 234.293 171.212 232.88ZM158.092 250.32C159.906 250.267 161.959 250.2 164.252 250.12C166.572 250.04 169.026 249.947 171.612 249.84C174.226 249.707 176.892 249.587 179.612 249.48C182.359 249.347 185.079 249.227 187.772 249.12L187.692 251.96C184.199 252.147 180.679 252.333 177.132 252.52C173.586 252.733 170.212 252.92 167.012 253.08C163.839 253.24 160.999 253.373 158.492 253.48L158.092 250.32ZM178.892 241.68L181.732 240.32C182.959 241.733 184.199 243.253 185.452 244.88C186.706 246.48 187.866 248.053 188.932 249.6C189.999 251.147 190.852 252.533 191.492 253.76L188.492 255.4C187.852 254.147 186.999 252.733 185.932 251.16C184.892 249.56 183.746 247.933 182.492 246.28C181.266 244.6 180.066 243.067 178.892 241.68ZM167.172 219.56L170.492 220.48C169.612 222.64 168.572 224.733 167.372 226.76C166.172 228.787 164.892 230.68 163.532 232.44C162.172 234.173 160.772 235.693 159.332 237C159.146 236.787 158.879 236.547 158.532 236.28C158.186 236.013 157.826 235.747 157.452 235.48C157.079 235.213 156.759 235 156.492 234.84C157.959 233.64 159.346 232.24 160.652 230.64C161.986 229.013 163.212 227.253 164.332 225.36C165.452 223.467 166.399 221.533 167.172 219.56ZM181.452 219.56C182.119 220.867 182.906 222.213 183.812 223.6C184.746 224.987 185.732 226.347 186.772 227.68C187.812 229.013 188.852 230.267 189.892 231.44C190.932 232.613 191.919 233.613 192.852 234.44C192.586 234.653 192.292 234.907 191.972 235.2C191.652 235.493 191.346 235.8 191.052 236.12C190.759 236.44 190.506 236.733 190.292 237C189.386 236.04 188.399 234.92 187.332 233.64C186.292 232.36 185.239 231 184.172 229.56C183.132 228.12 182.119 226.653 181.132 225.16C180.146 223.64 179.279 222.173 178.532 220.76L181.452 219.56ZM222.852 220.36L224.892 218.68C225.559 219.133 226.266 219.653 227.012 220.24C227.759 220.8 228.452 221.373 229.092 221.96C229.759 222.52 230.292 223.04 230.692 223.52L228.612 225.4C228.212 224.92 227.692 224.387 227.052 223.8C226.439 223.187 225.759 222.587 225.012 222C224.292 221.387 223.572 220.84 222.852 220.36ZM196.692 225.88H232.372V228.8H196.692V225.88ZM198.092 234.76H215.772V237.68H198.092V234.76ZM205.292 236.32H208.292V250.6H205.292V236.32ZM196.852 251.04C198.452 250.72 200.332 250.347 202.492 249.92C204.679 249.467 206.999 248.987 209.452 248.48C211.932 247.947 214.399 247.413 216.852 246.88L217.092 249.6C214.826 250.133 212.532 250.667 210.212 251.2C207.919 251.733 205.706 252.24 203.572 252.72C201.439 253.2 199.519 253.627 197.812 254L196.852 251.04ZM217.092 218.56H220.292C220.266 222.267 220.372 225.8 220.612 229.16C220.879 232.52 221.252 235.6 221.732 238.4C222.239 241.2 222.839 243.627 223.532 245.68C224.252 247.733 225.039 249.333 225.892 250.48C226.772 251.6 227.706 252.16 228.692 252.16C229.252 252.16 229.666 251.56 229.932 250.36C230.199 249.16 230.399 247.227 230.532 244.56C230.852 244.88 231.266 245.2 231.772 245.52C232.279 245.84 232.746 246.08 233.172 246.24C233.012 248.56 232.759 250.373 232.412 251.68C232.066 252.987 231.572 253.907 230.932 254.44C230.319 255 229.492 255.28 228.452 255.28C227.119 255.28 225.906 254.827 224.812 253.92C223.746 253.013 222.799 251.733 221.972 250.08C221.146 248.4 220.426 246.44 219.812 244.2C219.199 241.933 218.692 239.44 218.292 236.72C217.919 233.973 217.626 231.067 217.412 228C217.226 224.933 217.119 221.787 217.092 218.56ZM244.265 221.545V257.909H235.856V255.125H241.083V224.33H235.856V221.545H244.265ZM269.304 220.52C269.251 220.973 269.198 221.52 269.144 222.16C269.118 222.773 269.091 223.32 269.064 223.8C268.958 227.88 268.598 231.453 267.984 234.52C267.371 237.56 266.518 240.227 265.424 242.52C264.358 244.787 263.051 246.773 261.504 248.48C259.984 250.187 258.238 251.72 256.264 253.08L253.344 250.72C253.984 250.373 254.678 249.933 255.424 249.4C256.171 248.867 256.851 248.32 257.464 247.76C258.718 246.64 259.838 245.347 260.824 243.88C261.838 242.413 262.704 240.733 263.424 238.84C264.171 236.947 264.744 234.773 265.144 232.32C265.571 229.84 265.798 227.013 265.824 223.84C265.824 223.547 265.811 223.2 265.784 222.8C265.758 222.4 265.718 222 265.664 221.6C265.638 221.2 265.598 220.84 265.544 220.52H269.304ZM283.184 228.84C283.131 229.187 283.078 229.533 283.024 229.88C282.998 230.227 282.984 230.533 282.984 230.8C282.958 231.547 282.904 232.573 282.824 233.88C282.771 235.187 282.678 236.613 282.544 238.16C282.438 239.68 282.291 241.213 282.104 242.76C281.944 244.307 281.731 245.733 281.464 247.04C281.198 248.32 280.891 249.347 280.544 250.12C280.144 250.947 279.598 251.56 278.904 251.96C278.238 252.36 277.358 252.56 276.264 252.56C275.251 252.56 274.184 252.52 273.064 252.44C271.944 252.387 270.864 252.333 269.824 252.28L269.424 248.96C270.518 249.093 271.571 249.2 272.584 249.28C273.624 249.36 274.558 249.4 275.384 249.4C275.971 249.4 276.451 249.307 276.824 249.12C277.198 248.933 277.491 248.587 277.704 248.08C278.024 247.467 278.291 246.627 278.504 245.56C278.718 244.493 278.904 243.293 279.064 241.96C279.224 240.627 279.358 239.28 279.464 237.92C279.571 236.56 279.638 235.267 279.664 234.04C279.718 232.813 279.744 231.773 279.744 230.92H258.664C257.864 230.92 257.078 230.933 256.304 230.96C255.531 230.96 254.784 231 254.064 231.08V227.68C254.758 227.76 255.504 227.827 256.304 227.88C257.104 227.907 257.878 227.92 258.624 227.92H278.384C278.918 227.92 279.384 227.907 279.784 227.88C280.211 227.827 280.598 227.773 280.944 227.72L283.184 228.84ZM297.864 250.72C298.024 250.4 298.131 250.093 298.184 249.8C298.238 249.507 298.264 249.16 298.264 248.76C298.264 248.36 298.264 247.613 298.264 246.52C298.264 245.427 298.264 244.12 298.264 242.6C298.264 241.08 298.264 239.493 298.264 237.84C298.264 236.16 298.264 234.533 298.264 232.96C298.264 231.36 298.264 229.947 298.264 228.72C298.264 227.467 298.264 226.52 298.264 225.88C298.264 225.533 298.238 225.12 298.184 224.64C298.158 224.16 298.118 223.707 298.064 223.28C298.038 222.853 297.984 222.507 297.904 222.24H301.864C301.784 222.72 301.718 223.307 301.664 224C301.611 224.667 301.584 225.293 301.584 225.88C301.584 226.413 301.584 227.187 301.584 228.2C301.584 229.213 301.584 230.373 301.584 231.68C301.584 232.96 301.584 234.32 301.584 235.76C301.584 237.2 301.584 238.613 301.584 240C301.584 241.387 301.584 242.68 301.584 243.88C301.584 245.053 301.584 246.053 301.584 246.88C301.584 247.707 301.584 248.267 301.584 248.56C303.504 248.08 305.478 247.4 307.504 246.52C309.558 245.64 311.558 244.613 313.504 243.44C315.478 242.24 317.318 240.933 319.024 239.52C320.758 238.08 322.238 236.547 323.464 234.92L325.264 237.72C322.678 240.947 319.371 243.773 315.344 246.2C311.344 248.627 306.851 250.56 301.864 252C301.651 252.053 301.398 252.133 301.104 252.24C300.811 252.373 300.504 252.533 300.184 252.72L297.864 250.72ZM338.064 222.68C338.784 223.16 339.611 223.76 340.544 224.48C341.478 225.173 342.424 225.92 343.384 226.72C344.371 227.493 345.291 228.253 346.144 229C346.998 229.747 347.704 230.4 348.264 230.96L345.744 233.48C345.238 232.973 344.584 232.347 343.784 231.6C342.984 230.853 342.104 230.08 341.144 229.28C340.184 228.453 339.238 227.68 338.304 226.96C337.371 226.213 336.531 225.6 335.784 225.12L338.064 222.68ZM334.624 249.48C336.971 249.133 339.104 248.653 341.024 248.04C342.971 247.427 344.744 246.733 346.344 245.96C347.944 245.187 349.371 244.413 350.624 243.64C352.678 242.36 354.571 240.893 356.304 239.24C358.038 237.56 359.558 235.827 360.864 234.04C362.171 232.253 363.211 230.547 363.984 228.92L365.904 232.32C364.998 233.973 363.878 235.653 362.544 237.36C361.211 239.067 359.704 240.707 358.024 242.28C356.344 243.853 354.491 245.28 352.464 246.56C351.131 247.387 349.664 248.2 348.064 249C346.491 249.8 344.758 250.533 342.864 251.2C340.998 251.84 338.958 252.36 336.744 252.76L334.624 249.48ZM399.584 219.76C399.931 220.213 400.304 220.773 400.704 221.44C401.104 222.08 401.491 222.733 401.864 223.4C402.238 224.067 402.571 224.68 402.864 225.24L400.704 226.2C400.304 225.4 399.798 224.467 399.184 223.4C398.571 222.333 397.998 221.427 397.464 220.68L399.584 219.76ZM403.984 218.16C404.331 218.64 404.704 219.213 405.104 219.88C405.531 220.547 405.944 221.213 406.344 221.88C406.744 222.52 407.078 223.093 407.344 223.6L405.184 224.56C404.758 223.68 404.238 222.733 403.624 221.72C403.011 220.68 402.424 219.787 401.864 219.04L403.984 218.16ZM384.304 234.6C385.611 235.347 386.958 236.173 388.344 237.08C389.758 237.987 391.171 238.933 392.584 239.92C393.998 240.907 395.331 241.867 396.584 242.8C397.864 243.733 398.998 244.6 399.984 245.4L397.624 248.16C396.718 247.333 395.638 246.427 394.384 245.44C393.131 244.427 391.784 243.413 390.344 242.4C388.931 241.36 387.518 240.373 386.104 239.44C384.691 238.48 383.371 237.613 382.144 236.84L384.304 234.6ZM402.624 227.32C402.438 227.587 402.264 227.933 402.104 228.36C401.944 228.76 401.811 229.12 401.704 229.44C401.304 230.8 400.758 232.267 400.064 233.84C399.398 235.413 398.584 237 397.624 238.6C396.691 240.2 395.638 241.72 394.464 243.16C392.651 245.4 390.398 247.533 387.704 249.56C385.038 251.587 381.811 253.307 378.024 254.72L375.144 252.2C377.651 251.453 379.918 250.507 381.944 249.36C383.971 248.213 385.798 246.96 387.424 245.6C389.051 244.24 390.464 242.853 391.664 241.44C392.704 240.187 393.651 238.84 394.504 237.4C395.384 235.933 396.144 234.467 396.784 233C397.424 231.533 397.891 230.187 398.184 228.96H383.344L384.664 226.08H397.344C397.878 226.08 398.371 226.053 398.824 226C399.278 225.92 399.664 225.827 399.984 225.72L402.624 227.32ZM389.144 221.52C388.798 222.053 388.464 222.627 388.144 223.24C387.824 223.827 387.558 224.307 387.344 224.68C386.544 226.12 385.518 227.72 384.264 229.48C383.011 231.24 381.531 232.987 379.824 234.72C378.118 236.453 376.198 238.053 374.064 239.52L371.384 237.48C373.678 236.04 375.664 234.48 377.344 232.8C379.051 231.093 380.464 229.427 381.584 227.8C382.731 226.173 383.611 224.747 384.224 223.52C384.438 223.173 384.678 222.693 384.944 222.08C385.211 221.467 385.398 220.893 385.504 220.36L389.144 221.52ZM413.064 234.68C413.464 234.707 413.958 234.747 414.544 234.8C415.131 234.827 415.771 234.853 416.464 234.88C417.184 234.88 417.904 234.88 418.624 234.88C419.051 234.88 419.704 234.88 420.584 234.88C421.491 234.88 422.544 234.88 423.744 234.88C424.944 234.88 426.211 234.88 427.544 234.88C428.904 234.88 430.251 234.88 431.584 234.88C432.944 234.88 434.224 234.88 435.424 234.88C436.651 234.88 437.704 234.88 438.584 234.88C439.464 234.88 440.118 234.88 440.544 234.88C441.558 234.88 442.424 234.853 443.144 234.8C443.864 234.747 444.438 234.707 444.864 234.68V238.6C444.464 238.573 443.864 238.533 443.064 238.48C442.291 238.427 441.464 238.4 440.584 238.4C440.158 238.4 439.491 238.4 438.584 238.4C437.678 238.4 436.624 238.4 435.424 238.4C434.251 238.4 432.984 238.4 431.624 238.4C430.264 238.4 428.904 238.4 427.544 238.4C426.211 238.4 424.944 238.4 423.744 238.4C422.571 238.4 421.531 238.4 420.624 238.4C419.718 238.4 419.051 238.4 418.624 238.4C417.531 238.4 416.491 238.427 415.504 238.48C414.518 238.507 413.704 238.547 413.064 238.6V234.68ZM461.584 229.56H476.384V232.12H461.584V229.56ZM451.624 251.72H486.464V254.28H451.624V251.72ZM453.984 219.92H465.864V222.44H453.984V219.92ZM464.904 219.92H465.384L465.944 219.8L467.904 220.8C467.158 222.72 466.198 224.507 465.024 226.16C463.878 227.813 462.584 229.333 461.144 230.72C459.704 232.107 458.184 233.347 456.584 234.44C455.011 235.507 453.438 236.413 451.864 237.16C451.651 236.84 451.371 236.453 451.024 236C450.678 235.547 450.344 235.187 450.024 234.92C451.491 234.307 452.971 233.507 454.464 232.52C455.958 231.533 457.371 230.413 458.704 229.16C460.064 227.907 461.278 226.547 462.344 225.08C463.411 223.613 464.264 222.08 464.904 220.48V219.92ZM471.664 218.48C472.678 220.747 473.998 222.907 475.624 224.96C477.278 227.013 479.131 228.84 481.184 230.44C483.264 232.04 485.464 233.28 487.784 234.16C487.544 234.373 487.291 234.627 487.024 234.92C486.784 235.187 486.544 235.48 486.304 235.8C486.091 236.093 485.891 236.373 485.704 236.64C483.358 235.573 481.131 234.173 479.024 232.44C476.944 230.707 475.051 228.72 473.344 226.48C471.664 224.24 470.264 221.853 469.144 219.32L471.664 218.48ZM452.904 225.6L454.544 223.92C455.264 224.32 455.984 224.787 456.704 225.32C457.451 225.827 458.131 226.347 458.744 226.88C459.384 227.413 459.891 227.92 460.264 228.4L458.624 230.24C458.038 229.547 457.198 228.76 456.104 227.88C455.011 227 453.944 226.24 452.904 225.6ZM479.664 218.72L481.984 220.36C480.944 221.32 479.784 222.293 478.504 223.28C477.251 224.267 476.091 225.12 475.024 225.84L473.184 224.4C473.878 223.893 474.624 223.32 475.424 222.68C476.224 222.013 476.998 221.333 477.744 220.64C478.491 219.947 479.131 219.307 479.664 218.72ZM484.184 223.44L486.424 225.04C485.358 226.027 484.158 227.027 482.824 228.04C481.518 229.053 480.318 229.907 479.224 230.6L477.384 229.16C478.104 228.653 478.878 228.08 479.704 227.44C480.558 226.773 481.371 226.093 482.144 225.4C482.944 224.707 483.624 224.053 484.184 223.44ZM460.824 237.92V243.16H477.024V237.92H460.824ZM457.904 235.4H480.104V245.64H457.904V235.4ZM460.224 246.28L462.944 245.56C463.504 246.413 464.024 247.373 464.504 248.44C464.984 249.48 465.331 250.387 465.544 251.16L462.664 252.04C462.478 251.267 462.158 250.333 461.704 249.24C461.251 248.147 460.758 247.16 460.224 246.28ZM475.104 245.44L477.984 246.2C477.451 247.267 476.904 248.32 476.344 249.36C475.784 250.4 475.251 251.307 474.744 252.08L472.144 251.36C472.491 250.827 472.851 250.213 473.224 249.52C473.598 248.827 473.944 248.12 474.264 247.4C474.611 246.653 474.891 246 475.104 245.44ZM524.744 235.96L527.104 237.44C526.304 238.427 525.438 239.413 524.504 240.4C523.598 241.387 522.758 242.253 521.984 243L520.064 241.64C520.571 241.133 521.104 240.56 521.664 239.92C522.251 239.253 522.811 238.573 523.344 237.88C523.904 237.16 524.371 236.52 524.744 235.96ZM506.864 237.92L508.864 236.64C509.744 237.413 510.598 238.307 511.424 239.32C512.278 240.333 512.904 241.213 513.304 241.96L511.144 243.44C510.771 242.667 510.171 241.76 509.344 240.72C508.518 239.68 507.691 238.747 506.864 237.92ZM508.104 220H524.104V233.4H521.304V222.56H508.104V220ZM508.904 226H522.904V228.4H508.904V226ZM506.024 231.92H527.424V234.52H506.024V231.92ZM514.984 233.12H517.784V252.04C517.784 252.787 517.704 253.36 517.544 253.76C517.384 254.187 517.051 254.507 516.544 254.72C516.091 254.933 515.478 255.067 514.704 255.12C513.958 255.173 513.024 255.2 511.904 255.2C511.878 254.827 511.784 254.387 511.624 253.88C511.464 253.373 511.291 252.933 511.104 252.56C511.851 252.587 512.531 252.6 513.144 252.6C513.758 252.6 514.184 252.6 514.424 252.6C514.664 252.573 514.811 252.52 514.864 252.44C514.944 252.36 514.984 252.213 514.984 252V233.12ZM505.144 249.96C506.211 249.32 507.464 248.52 508.904 247.56C510.344 246.573 511.824 245.573 513.344 244.56L514.224 246.84C512.944 247.827 511.638 248.8 510.304 249.76C508.998 250.72 507.758 251.613 506.584 252.44L505.144 249.96ZM517.664 234.92C517.984 236.253 518.411 237.653 518.944 239.12C519.504 240.56 520.198 241.987 521.024 243.4C521.878 244.813 522.891 246.12 524.064 247.32C525.238 248.493 526.584 249.493 528.104 250.32C527.918 250.507 527.704 250.747 527.464 251.04C527.224 251.307 526.984 251.6 526.744 251.92C526.531 252.24 526.344 252.533 526.184 252.8C524.664 251.867 523.331 250.76 522.184 249.48C521.038 248.173 520.051 246.787 519.224 245.32C518.424 243.853 517.758 242.4 517.224 240.96C516.691 239.52 516.278 238.187 515.984 236.96L517.664 234.92ZM493.304 228.32H504.704V230.88H493.304V228.32ZM491.184 235.16H505.824V237.8H491.184V235.16ZM492.064 240.4L494.144 239.92C494.571 241.12 494.931 242.427 495.224 243.84C495.518 245.253 495.704 246.467 495.784 247.48L493.544 248.04C493.518 247 493.358 245.773 493.064 244.36C492.798 242.947 492.464 241.627 492.064 240.4ZM490.784 251.2C492.038 250.96 493.464 250.693 495.064 250.4C496.691 250.08 498.411 249.747 500.224 249.4C502.038 249.027 503.838 248.667 505.624 248.32L505.864 250.84C503.304 251.4 500.758 251.96 498.224 252.52C495.691 253.08 493.424 253.56 491.424 253.96L490.784 251.2ZM503.184 239.56L505.544 240.16C505.198 241.387 504.851 242.667 504.504 244C504.158 245.307 503.811 246.427 503.464 247.36L501.504 246.76C501.718 246.12 501.931 245.373 502.144 244.52C502.358 243.64 502.558 242.773 502.744 241.92C502.931 241.04 503.078 240.253 503.184 239.56ZM497.424 229.28H500.104V251.08L497.424 251.48V229.28ZM497.304 218.4H498.904V219.04H499.784V219.84C499.011 221.36 497.958 223.107 496.624 225.08C495.291 227.027 493.638 228.88 491.664 230.64C491.504 230.427 491.318 230.2 491.104 229.96C490.891 229.72 490.664 229.493 490.424 229.28C490.184 229.04 489.971 228.853 489.784 228.72C491.011 227.707 492.104 226.613 493.064 225.44C494.024 224.24 494.851 223.04 495.544 221.84C496.264 220.613 496.851 219.467 497.304 218.4ZM497.784 218.4H500.024C500.824 219.12 501.651 219.92 502.504 220.8C503.358 221.653 504.158 222.507 504.904 223.36C505.678 224.187 506.291 224.947 506.744 225.64L504.744 227.88C504.291 227.213 503.704 226.44 502.984 225.56C502.291 224.653 501.544 223.76 500.744 222.88C499.944 221.973 499.158 221.187 498.384 220.52H497.784V218.4ZM547.224 221.92C547.438 222.4 547.731 223.107 548.104 224.04C548.478 224.973 548.864 225.987 549.264 227.08C549.691 228.147 550.078 229.173 550.424 230.16C550.771 231.12 551.024 231.88 551.184 232.44L548.064 233.52C547.904 232.96 547.651 232.2 547.304 231.24C546.984 230.253 546.624 229.227 546.224 228.16C545.851 227.093 545.478 226.093 545.104 225.16C544.731 224.2 544.411 223.467 544.144 222.96L547.224 221.92ZM564.984 224.48C564.851 224.827 564.718 225.213 564.584 225.64C564.478 226.067 564.371 226.44 564.264 226.76C563.891 228.413 563.384 230.12 562.744 231.88C562.131 233.64 561.398 235.373 560.544 237.08C559.691 238.76 558.718 240.32 557.624 241.76C556.264 243.547 554.718 245.2 552.984 246.72C551.278 248.213 549.478 249.52 547.584 250.64C545.718 251.76 543.838 252.653 541.944 253.32L539.184 250.52C541.104 249.96 543.011 249.173 544.904 248.16C546.798 247.147 548.598 245.947 550.304 244.56C552.038 243.147 553.571 241.587 554.904 239.88C555.971 238.547 556.931 236.987 557.784 235.2C558.638 233.387 559.371 231.48 559.984 229.48C560.598 227.453 561.038 225.44 561.304 223.44L564.984 224.48ZM536.064 224.32C536.331 224.88 536.664 225.64 537.064 226.6C537.464 227.533 537.891 228.56 538.344 229.68C538.798 230.773 539.211 231.827 539.584 232.84C539.984 233.827 540.304 234.64 540.544 235.28L537.384 236.44C537.224 235.96 536.998 235.333 536.704 234.56C536.438 233.76 536.118 232.92 535.744 232.04C535.398 231.133 535.038 230.24 534.664 229.36C534.318 228.48 533.984 227.707 533.664 227.04C533.344 226.347 533.091 225.827 532.904 225.48L536.064 224.32ZM573.064 234.68C573.464 234.707 573.958 234.747 574.544 234.8C575.131 234.827 575.771 234.853 576.464 234.88C577.184 234.88 577.904 234.88 578.624 234.88C579.051 234.88 579.704 234.88 580.584 234.88C581.491 234.88 582.544 234.88 583.744 234.88C584.944 234.88 586.211 234.88 587.544 234.88C588.904 234.88 590.251 234.88 591.584 234.88C592.944 234.88 594.224 234.88 595.424 234.88C596.651 234.88 597.704 234.88 598.584 234.88C599.464 234.88 600.118 234.88 600.544 234.88C601.558 234.88 602.424 234.853 603.144 234.8C603.864 234.747 604.438 234.707 604.864 234.68V238.6C604.464 238.573 603.864 238.533 603.064 238.48C602.291 238.427 601.464 238.4 600.584 238.4C600.158 238.4 599.491 238.4 598.584 238.4C597.678 238.4 596.624 238.4 595.424 238.4C594.251 238.4 592.984 238.4 591.624 238.4C590.264 238.4 588.904 238.4 587.544 238.4C586.211 238.4 584.944 238.4 583.744 238.4C582.571 238.4 581.531 238.4 580.624 238.4C579.718 238.4 579.051 238.4 578.624 238.4C577.531 238.4 576.491 238.427 575.504 238.48C574.518 238.507 573.704 238.547 573.064 238.6V234.68ZM629.944 251.16C630.024 250.84 630.078 250.493 630.104 250.12C630.158 249.72 630.184 249.32 630.184 248.92C630.184 248.653 630.184 248.067 630.184 247.16C630.184 246.253 630.184 245.147 630.184 243.84C630.184 242.507 630.184 241.067 630.184 239.52C630.184 237.973 630.184 236.427 630.184 234.88C630.184 233.307 630.184 231.84 630.184 230.48C630.184 229.12 630.184 227.947 630.184 226.96C630.184 225.973 630.184 225.307 630.184 224.96C630.184 224.187 630.158 223.547 630.104 223.04C630.051 222.507 630.011 222.16 629.984 222H633.664C633.664 222.16 633.638 222.507 633.584 223.04C633.531 223.573 633.504 224.213 633.504 224.96C633.504 225.333 633.504 226 633.504 226.96C633.504 227.893 633.504 229.04 633.504 230.4C633.504 231.733 633.504 233.173 633.504 234.72C633.504 236.24 633.504 237.747 633.504 239.24C633.504 240.733 633.504 242.12 633.504 243.4C633.504 244.653 633.504 245.693 633.504 246.52C633.504 247.347 633.504 247.853 633.504 248.04C634.758 247.453 636.091 246.68 637.504 245.72C638.918 244.76 640.291 243.64 641.624 242.36C642.984 241.08 644.171 239.693 645.184 238.2L647.064 240.92C645.918 242.467 644.571 243.947 643.024 245.36C641.504 246.773 639.918 248.04 638.264 249.16C636.611 250.28 634.998 251.227 633.424 252C633.104 252.187 632.824 252.36 632.584 252.52C632.371 252.68 632.198 252.813 632.064 252.92L629.944 251.16ZM611.624 250.96C613.304 249.76 614.731 248.307 615.904 246.6C617.078 244.893 617.971 243.067 618.584 241.12C618.878 240.213 619.104 239.08 619.264 237.72C619.424 236.36 619.544 234.92 619.624 233.4C619.704 231.853 619.744 230.36 619.744 228.92C619.771 227.453 619.784 226.16 619.784 225.04C619.784 224.453 619.758 223.933 619.704 223.48C619.651 223 619.584 222.547 619.504 222.12H623.184C623.158 222.28 623.131 222.52 623.104 222.84C623.078 223.133 623.051 223.467 623.024 223.84C622.998 224.213 622.984 224.6 622.984 225C622.984 226.12 622.971 227.44 622.944 228.96C622.918 230.453 622.851 232.027 622.744 233.68C622.664 235.307 622.544 236.853 622.384 238.32C622.251 239.787 622.038 241.013 621.744 242C621.158 244.133 620.238 246.147 618.984 248.04C617.758 249.933 616.304 251.587 614.624 253L611.624 250.96Z" fill="white"/>
<g opacity="0.1">
<path d="M950 230C994.183 230 1030 194.183 1030 150C1030 105.817 994.183 70 950 70C905.817 70 870 105.817 870 150C870 194.183 905.817 230 950 230Z" fill="white"/>
<path d="M1100 570C1166.27 570 1220 516.274 1220 450C1220 383.726 1166.27 330 1100 330C1033.73 330 980 383.726 980 450C980 516.274 1033.73 570 1100 570Z" fill="white"/>
<path d="M941.421 441.421L800 300L658.579 441.421L800 582.843L941.421 441.421Z" fill="white"/>
</g>
</g>
<defs>
<linearGradient id="paint0_linear_616_4" x1="0" y1="0" x2="51856.9" y2="98775.1" gradientUnits="userSpaceOnUse">
<stop stop-color="#9EB4F3"/>
<stop offset="1" stop-color="#2563EB"/>
</linearGradient>
<clipPath id="clip0_616_4">
<rect width="1200" height="630" fill="white"/>
</clipPath>
</defs>
</svg>
